<svg xmlns="http://www.w3.org/2000/svg" viewBox="0 0 16 15">
    <defs>
        <style>
            .cls-3{fill:#000400}
        </style>
    </defs>
    <g id="Layer_2" data-name="Layer 2">
        <g id="_10" data-name="10">
            <path d="M4 4h4v3H4zm6 0h5v3h-5zM5 9h1v1H5zm1-1h2v1H6zm2-1h1v1H8zm-6 4h4v3H2z" fill="#f89c10"/>
            <path d="M1 1h3v3H1zm3 5H2v2H1v3h2v-1h1V9h1V7H4V6zm9-4V1H9v1H8v3h2V4h1V3h4V2h-2z" fill="#d03000"/>
            <path class="cls-3" d="M3 3h1V2h1V0H2v2h1v1zm1 0h2v1H4z"/>
            <path class="cls-3" d="M2 3V2H0v2h3V3H2zm2 3V4H3v1H2v1h2zM1 6h1v2H1zM0 8h1v3H0zm4-2h1v1H4zm1 3H4v1H3v1H1v1h1v1h1v-1h1v-1h1v2h1v-3H5V9zm-3 5v-1H1v2h6v-2H6v1H2zm4-5h2v1H6zm2-1h1v1H8zM7 2h1v3H7zm1-1h1v1H8zm1-1h4v1H9zm4 1h2v1h-2zm2 1v1h-4v1h1v1h1V4h2v3h1V2h-1z"/>
            <path class="cls-3" d="M10 6h1V4h-1v1H8v1H7v1H5v2h1V8h2V7h1v1h6V7h-5V6z"/>
        </g>
    </g>
</svg>
