<svg xmlns="http://www.w3.org/2000/svg" viewBox="0 0 16 14">
    <defs>
        <style>
            .cls-1{fill:#f89c10}.cls-2{fill:#d03000}.cls-3{fill:#000400}
        </style>
    </defs>
    <g id="Layer_2" data-name="Layer 2">
        <g id="_11" data-name="11">
            <path class="cls-1" d="M5 10h4v4H5z"/>
            <path class="cls-2" d="M1 1v3h1V3h1v1h1V1H1z"/>
            <path class="cls-1" d="M4 4h4v3H4zm6-1h5v4h-5zM5 9h1v1H5zm1-1h2v1H6zm2-1h1v1H8zm-7 4h5v3H1z"/>
            <path class="cls-2" d="M4 6H2v2H1v3h2v-1h1V9h1V7H4V6zm9-4V1H9v1H8v3h2V4h1V3h4V2h-2z"/>
            <path class="cls-1" d="M4 3h2v1H4z"/>
            <path class="cls-3" d="M15 4h1v3h-1zm-3-1v2h1V3h-1zm2 0h1v1h-1zM4 6V2h1V0H2v2h1v3H2v1h2zM2 8V6H1v1H0v4h1V8h1zm2-2h1v1H4zm3-3H6v1h1v1h1V2H7v1zm1-2h1v1H8zm1-1h4v1H9zm4 1h2v1h-2zM0 3h1v1h1V2H0v1zm15-1h1v1h-1z"/>
            <path class="cls-3" d="M7 6v1H5v2h1V8h2V7h1v1h6V7h-5V6h1V3h-1v2H8v1H7z"/>
            <path class="cls-3" d="M8 9H6v1h2v2h1V8H8v1z"/>
            <path class="cls-3" d="M5 13v-2h1v-1H5V9H4v1H3v1H1v1h3v1H1v-1H0v2h10v-2H9v1H5z"/>
        </g>
    </g>
</svg>
