<svg xmlns="http://www.w3.org/2000/svg" viewBox="0 0 16 14"><defs><style>.cls-1{fill:#f89c10;}.cls-2{fill:#d03000;}.cls-3{fill:#000400;}</style></defs><title>11</title><g id="Layer_2" data-name="Layer 2"><g id="_11" data-name="11"><rect class="cls-1" x="5" y="10" width="4" height="4"/><polygon class="cls-2" points="1 1 1 4 2 4 2 3 3 3 3 4 4 4 4 1 1 1"/><rect class="cls-1" x="4" y="4" width="4" height="3"/><rect class="cls-1" x="10" y="3" width="5" height="4"/><rect class="cls-1" x="5" y="9" width="1" height="1"/><rect class="cls-1" x="6" y="8" width="2" height="1"/><rect class="cls-1" x="8" y="7" width="1" height="1"/><rect class="cls-1" x="1" y="11" width="5" height="3"/><polygon class="cls-2" points="4 6 2 6 2 8 1 8 1 11 3 11 3 10 4 10 4 9 5 9 5 7 4 7 4 6"/><polygon class="cls-2" points="13 2 13 1 11 1 9 1 9 2 8 2 8 5 10 5 10 4 11 4 11 3 13 3 15 3 15 2 13 2"/><rect class="cls-1" x="4" y="3" width="2" height="1"/><rect class="cls-3" x="15" y="4" width="1" height="3"/><polygon class="cls-3" points="12 3 12 4 12 5 13 5 13 4 13 3 12 3"/><rect class="cls-3" x="14" y="3" width="1" height="1"/><polygon class="cls-3" points="4 6 4 4 4 3 4 2 5 2 5 0 2 0 2 2 3 2 3 3 3 4 3 5 2 5 2 6 3 6 4 6"/><polygon class="cls-3" points="2 8 2 6 1 6 1 7 0 7 0 8 0 11 1 11 1 8 2 8"/><rect class="cls-3" x="4" y="6" width="1" height="1"/><polygon class="cls-3" points="7 3 6 3 6 4 7 4 7 5 8 5 8 2 7 2 7 3"/><rect class="cls-3" x="8" y="1" width="1" height="1"/><rect class="cls-3" x="9" width="4" height="1"/><rect class="cls-3" x="13" y="1" width="2" height="1"/><polygon class="cls-3" points="0 3 1 3 1 4 2 4 2 3 2 2 0 2 0 3"/><rect class="cls-3" x="15" y="2" width="1" height="1"/><polygon class="cls-3" points="7 6 7 7 6 7 5 7 5 9 6 9 6 8 8 8 8 7 9 7 9 8 15 8 15 7 10 7 10 6 11 6 11 4 11 3 10 3 10 4 10 5 8 5 8 6 7 6"/><polygon class="cls-3" points="8 9 6 9 6 10 8 10 8 12 9 12 9 9 9 8 8 8 8 9"/><polygon class="cls-3" points="5 13 5 12 5 11 6 11 6 10 5 10 5 9 4 9 4 10 3 10 3 11 2 11 1 11 1 12 2 12 3 12 4 12 4 13 1 13 1 12 0 12 0 14 1 14 4 14 5 14 10 14 10 13 10 12 9 12 9 13 5 13"/></g></g></svg>