<svg xmlns="http://www.w3.org/2000/svg" viewBox="0 0 16 13"><defs><style>.cls-1{fill:#f8fcf8;}.cls-2{fill:#000400;}</style></defs><title>13</title><g id="Layer_2" data-name="Layer 2"><g id="_13" data-name="13"><polygon class="cls-1" points="14 3 14 0 3 0 3 1 1 1 1 2 0 2 0 9 1 9 1 10 3 10 6 10 6 11 5 11 5 12 7 12 7 11 9 11 9 10 14 10 14 8 15 8 15 3 14 3"/><polygon class="cls-2" points="3 5 2 5 2 3 1 3 1 8 2 8 2 6 3 6 3 8 4 8 4 3 3 3 3 5"/><polygon class="cls-2" points="7 8 7 7 6 7 6 6 7 6 7 5 6 5 6 4 7 4 7 3 6 3 5 3 5 8 6 8 7 8"/><polygon class="cls-2" points="10 8 10 7 9 7 9 3 8 3 8 8 9 8 10 8"/><polygon class="cls-2" points="12 7 13 7 13 6 12 6 12 4 13 4 13 3 12 3 11 3 11 8 12 8 12 7"/><rect class="cls-2" x="13" y="4" width="1" height="2"/><rect class="cls-2" x="12" width="2" height="1"/><polygon class="cls-2" points="15 2 15 1 14 1 14 3 15 3 15 8 14 8 14 9 11 9 11 10 9 10 9 11 7 11 7 12 5 12 5 13 8 13 8 12 10 12 10 11 12 11 12 10 14 10 15 10 15 9 16 9 16 2 15 2"/></g></g></svg>