<svg xmlns="http://www.w3.org/2000/svg" viewBox="0 0 16 13">
    <defs>
        <style>
            .cls-2{fill:#000400}
        </style>
    </defs>
    <g id="Layer_2" data-name="Layer 2">
        <g id="_13" data-name="13">
            <path fill="#f8fcf8" d="M14 3V0H3v1H1v1H0v7h1v1h5v1H5v1h2v-1h2v-1h5V8h1V3h-1z"/>
            <path class="cls-2" d="M3 5H2V3H1v5h1V6h1v2h1V3H3v2zm4 3V7H6V6h1V5H6V4h1V3H5v5h2zm3 0V7H9V3H8v5h2zm2-1h1V6h-1V4h1V3h-2v5h1V7zm1-3h1v2h-1zm-1-4h2v1h-2z"/>
            <path class="cls-2" d="M15 2V1h-1v2h1v5h-1v1h-3v1H9v1H7v1H5v1h3v-1h2v-1h2v-1h3V9h1V2h-1z"/>
        </g>
    </g>
</svg>
