<svg xmlns="http://www.w3.org/2000/svg" viewBox="0 0 16 16">
    <defs>
        <style>
            .cls-3{fill:#000200}
        </style>
    </defs>
    <g id="Layer_2" data-name="Layer 2">
        <g id="_14" data-name="14">
            <path fill="#f8eca0" d="M0 0h16v7H0z"/>
            <path fill="#f89c10" d="M13 8V3H4v5H1v7h14V8h-2z"/>
            <path class="cls-3" d="M5 4h2v2H5zm4 0h2v2H9z"/>
            <path class="cls-3" d="M14 7V1h-3v1h-1V1H6v1H5V1H2v6H0v9h16V7zM3 2h1v1h3V2h2v1h3V2h1v5h-1v2h-2V7H6v2H4V7H3zm12 13h-5v-4H9v-1H7v1H6v4H1V8h2v2h4V8h2v2h4V8h2z"/>
            <path d="M3 2h1v5H3zm1 5h1v2H4zm3-5h2v1H7zm0 6h2v1H7zm5-6h1v1h-1zm1 6h2v1h-2zm-4 2h1v1H9zm1 1h1v4h-1zM1 9v6h1V9h1V8H1v1z" fill="#f8d0b0"/>
        </g>
    </g>
</svg>
