<svg xmlns="http://www.w3.org/2000/svg" viewBox="0 0 16 16"><defs><style>.cls-1{fill:#f8eca0;}.cls-2{fill:#f89c10;}.cls-3{fill:#000200;}.cls-4{fill:#f8d0b0;}</style></defs><title>14</title><g id="Layer_2" data-name="Layer 2"><g id="_14" data-name="14"><rect class="cls-1" width="16" height="7"/><polygon class="cls-2" points="13 8 13 3 4 3 4 8 1 8 1 15 15 15 15 8 13 8"/><rect class="cls-3" x="5" y="4" width="2" height="2"/><rect class="cls-3" x="9" y="4" width="2" height="2"/><path class="cls-3" d="M14,7V1H11V2H10V1H6V2H5V1H2V7H0v9H16V7ZM3,2H4V3H7V2H9V3h3V2h1V7H12V9H10V7H6V9H4V7H3ZM15,15H10V11H9V10H7v1H6v4H1V8H3v2H7V8H9v2h4V8h2Z"/><rect class="cls-4" x="3" y="2" width="1" height="5"/><rect class="cls-4" x="4" y="7" width="1" height="2"/><rect class="cls-4" x="7" y="2" width="2" height="1"/><rect class="cls-4" x="7" y="8" width="2" height="1"/><rect class="cls-4" x="12" y="2" width="1" height="1"/><rect class="cls-4" x="13" y="8" width="2" height="1"/><rect class="cls-4" x="9" y="10" width="1" height="1"/><rect class="cls-4" x="10" y="11" width="1" height="4"/><polygon class="cls-4" points="1 9 1 15 2 15 2 9 3 9 3 8 1 8 1 9"/></g></g></svg>