<svg xmlns="http://www.w3.org/2000/svg" viewBox="0 0 16 16">
    <defs>
        <style>
            .cls-3{fill:#000400}
        </style>
    </defs>
    <g id="Layer_2" data-name="Layer 2">
        <g id="_15" data-name="15">
            <path fill="#f89c10" d="M1 1h14v14H1z"/>
            <path fill="#f8eca0" d="M10 4v2H9v1H7V6H5V4H3v8h2V9h2v1h2V8h1v4h2V4h-2z"/>
            <path class="cls-3" d="M4 4h1v1H4zm1 1h1v1H5zm1 1h1v1H6zm1 1h1v1H7zm1-1h1v1H8zm1-1h1v1H9zm1-1h1v1h-1z"/>
            <path class="cls-3" d="M12 12h-2V8H9v1H8v1h1v3h4V3h-2v1h1v8zm-6 1v-3h1V9H6V8H5v4H3V4h1V3H2v10h4zm1-3h1v1H7z"/>
            <path class="cls-3" d="M0 0v16h16V0zm15 15H1V1h14z"/>
        </g>
    </g>
</svg>
