<svg xmlns="http://www.w3.org/2000/svg" viewBox="0 0 16 16"><defs><style>.cls-1{fill:#f89c10;}.cls-2{fill:#f8eca0;}.cls-3{fill:#000400;}</style></defs><title>15</title><g id="Layer_2" data-name="Layer 2"><g id="_15" data-name="15"><rect class="cls-1" x="1" y="1" width="14" height="14"/><polygon class="cls-2" points="10 4 10 6 9 6 9 7 7 7 7 6 5 6 5 4 3 4 3 12 5 12 5 9 7 9 7 10 9 10 9 8 10 8 10 12 12 12 12 4 10 4"/><rect class="cls-3" x="4" y="4" width="1" height="1"/><rect class="cls-3" x="5" y="5" width="1" height="1"/><rect class="cls-3" x="6" y="6" width="1" height="1"/><rect class="cls-3" x="7" y="7" width="1" height="1"/><rect class="cls-3" x="8" y="6" width="1" height="1"/><rect class="cls-3" x="9" y="5" width="1" height="1"/><rect class="cls-3" x="10" y="4" width="1" height="1"/><polygon class="cls-3" points="12 12 10 12 10 8 9 8 9 9 8 9 8 10 9 10 9 13 10 13 12 13 13 13 13 4 13 3 11 3 11 4 12 4 12 12"/><polygon class="cls-3" points="6 13 6 12 6 10 7 10 7 9 6 9 6 8 5 8 5 12 3 12 3 4 4 4 4 3 3 3 2 3 2 13 3 13 6 13"/><rect class="cls-3" x="7" y="10" width="1" height="1"/><path class="cls-3" d="M0,0V16H16V0ZM15,15H1V1H15Z"/></g></g></svg>