<svg xmlns="http://www.w3.org/2000/svg" viewBox="0 0 16 16">
    <g data-name="Layer 2">
        <g data-name="16">
            <path fill="#fff" d="M1 2h14v12H1z"/>
            <path d="M0 0v2h1V1h14v1h1V0H0zm7 4h1v1H7zm6 1h1v6h1V5h1V4h-3v1zm-1 0h1v2h-1zm-1 0h1V4h-2v7h1V8h1V7h-1V5zm1 3h1v3h-1zm-5 3V8h1v3h1V5H8v2H7V5H6v6h1zm-5 0h1V7H1V5h1v1h1V5h1v6h1V5h1V4H0v4h2v2H1V9H0v2h2zm13 4H1v-2H0v3h16v-3h-1v2z" fill="#000400"/>
            <path d="M1 1h14v1H1zm14 1h1v2h-1zm0 3h1v8h-1zM1 14h14v1H1zm-1-3h1v2H0zm0-3h1v1H0zm0-6h1v2H0z" fill="#f82000"/>
        </g>
    </g>
</svg>
