<svg xmlns="http://www.w3.org/2000/svg" viewBox="0 0 16 16"><defs><style>.cls-1{fill:#fff;}.cls-2{fill:#000400;}.cls-3{fill:#f82000;}</style></defs><title>16</title><g id="Layer_2" data-name="Layer 2"><g id="_16" data-name="16"><rect class="cls-1" x="1" y="2" width="14" height="12"/><polygon class="cls-2" points="0 0 0 1 0 2 1 2 1 1 15 1 15 2 16 2 16 1 16 0 0 0"/><rect class="cls-2" x="7" y="4" width="1" height="1"/><polygon class="cls-2" points="13 5 14 5 14 11 15 11 15 5 16 5 16 4 13 4 13 5"/><rect class="cls-2" x="12" y="5" width="1" height="2"/><polygon class="cls-2" points="11 5 12 5 12 4 10 4 10 5 10 11 11 11 11 8 12 8 12 7 11 7 11 5"/><rect class="cls-2" x="12" y="8" width="1" height="3"/><polygon class="cls-2" points="7 11 7 8 8 8 8 11 9 11 9 5 8 5 8 7 7 7 7 5 6 5 6 11 7 11"/><polygon class="cls-2" points="2 11 3 11 3 8 3 7 1 7 1 5 2 5 2 6 3 6 3 5 4 5 4 11 5 11 5 5 6 5 6 4 0 4 0 5 0 8 1 8 2 8 2 10 1 10 1 9 0 9 0 11 1 11 2 11"/><polygon class="cls-2" points="15 15 1 15 1 13 0 13 0 16 1 16 15 16 16 16 16 13 15 13 15 15"/><rect class="cls-3" x="1" y="1" width="14" height="1"/><rect class="cls-3" x="15" y="2" width="1" height="2"/><rect class="cls-3" x="15" y="5" width="1" height="8"/><rect class="cls-3" x="1" y="14" width="14" height="1"/><rect class="cls-3" y="11" width="1" height="2"/><rect class="cls-3" y="8" width="1" height="1"/><rect class="cls-3" y="2" width="1" height="2"/></g></g></svg>