<svg xmlns="http://www.w3.org/2000/svg" viewBox="0 0 16 16"><defs><style>.cls-1{fill:#f8fcf8;}.cls-2{fill:#000400;}.cls-3{fill:#98fcf8;}.cls-4{fill:#3e3f3e;}</style></defs><title>19</title><g id="Layer_2" data-name="Layer 2"><g id="_19" data-name="19"><rect class="cls-1" width="16" height="16"/><rect class="cls-2" x="1" y="1" width="14" height="14"/><polygon class="cls-3" points="6 4 6 3 5 3 5 2 2 2 2 7 2 13 3 13 4 13 5 13 5 12 6 12 6 10 5 10 5 9 4 9 4 7 5 7 5 6 6 6 6 5 7 5 7 4 6 4"/><rect class="cls-4" x="1" y="14" width="1" height="1"/><rect class="cls-4" x="14" y="14" width="1" height="1"/><polygon class="cls-1" points="9 12 9 13 13 13 13 12 10 12 10 11 9 11 9 12"/><polygon class="cls-1" points="9 8 9 9 12 9 12 10 10 10 10 11 13 11 13 10 13 9 13 8 9 8"/></g></g></svg>