<svg xmlns="http://www.w3.org/2000/svg" viewBox="0 0 16 16">
    <defs>
        <style>
            .cls-3{fill:#000400}
        </style>
    </defs>
    <g id="Layer_2" data-name="Layer 2">
        <g id="_2" data-name="2">
            <path fill="#f89c10" d="M13 9V8h-3v1H9v4h1v1h3v-1h1V9h-1z"/>
            <path d="M9 8V0H0v16h9v-2H8V8h1zm6-8h1v8h-1zm0 14h1v2h-1z" fill="#f8eca0"/>
            <path class="cls-3" d="M15 8V0h-1v7h-4V0H9v8H8v6h1v2h1v-1h4v1h1v-2h1V8zm-2 5v1h-3v-1H9V9h1V8h3v1h1v4z"/>
            <path class="cls-3" d="M13 9h-1v3h-1v1h2V9z"/>
            <path d="M10 0h4v7h-4zm0 15h4v1h-4zM9 9h1v2H9zm1-1h1v1h-1z" fill="#f8d0b0"/>
        </g>
    </g>
</svg>
