<svg xmlns="http://www.w3.org/2000/svg" viewBox="0 0 16 16"><defs><style>.cls-1{fill:#f8eca0;}.cls-2{fill:#f89c10;}.cls-3{fill:#f8d0b0;}</style></defs><title>21</title><g id="Layer_2" data-name="Layer 2"><g id="_21" data-name="21"><rect class="cls-1" width="16" height="9"/><polygon class="cls-2" points="13 11 13 4 1 4 1 15 13 15 15 15 15 11 13 11"/><polygon points="5 3 7 3 7 4 8 4 8 5 8 6 9 6 9 5 10 5 10 4 10 3 8 3 8 2 4 2 4 3 3 3 3 4 5 4 5 3"/><rect x="5" y="5" width="2" height="1"/><rect x="2" y="11" width="1" height="2"/><rect x="6" y="7" width="1" height="1"/><polygon points="11 9 10 9 10 11 11 11 13 11 13 10 11 10 11 9"/><polygon points="15 9 15 8 15 7 13 7 13 8 14 8 14 9 13 9 13 10 15 10 15 12 14 12 14 13 15 13 15 15 14 15 14 14 13 14 13 15 10 15 10 12 9 12 9 11 8 11 8 10 8 9 9 9 10 9 10 7 12 7 13 7 13 4 12 4 12 3 12 2 10 2 10 3 11 3 11 5 12 5 12 6 9 6 9 7 9 8 7 8 7 9 5 9 5 8 3 8 3 9 4 9 4 11 5 11 5 10 6 10 6 11 5 11 5 12 6 12 6 14 7 14 7 15 5 15 5 12 4 12 4 15 1 15 1 14 2 14 2 13 1 13 1 8 2 8 3 8 3 5 3 4 1 4 1 5 2 5 2 6 1 6 1 7 0 7 0 16 1 16 16 16 16 15 16 10 16 9 15 9"/><rect x="12" y="13" width="1" height="1"/><rect class="cls-3" x="1" y="8" width="1" height="5"/><rect class="cls-3" x="1" y="14" width="1" height="1"/><rect class="cls-3" x="5" y="12" width="1" height="1"/><polygon class="cls-3" points="3 4 3 8 4 8 4 5 5 5 5 4 4 4 3 4"/><rect class="cls-3" x="5" y="3" width="2" height="1"/><rect class="cls-3" x="7" y="4" width="1" height="1"/><rect class="cls-3" x="10" y="3" width="1" height="1"/><rect class="cls-3" x="9" y="9" width="1" height="2"/><rect class="cls-3" x="10" y="11" width="1" height="4"/><rect class="cls-3" x="12" y="7" width="1" height="1"/><rect class="cls-3" x="13" y="8" width="1" height="1"/><rect class="cls-3" x="11" y="9" width="2" height="1"/><rect class="cls-3" x="13" y="10" width="2" height="1"/></g></g></svg>