<svg xmlns="http://www.w3.org/2000/svg" viewBox="0 0 16 16">
    <g data-name="Layer 2">
        <g data-name="21">
            <path fill="#f8eca0" d="M0 0h16v9H0z"/>
            <path fill="#f89c10" d="M13 11V4H1v11h14v-4h-2z"/>
            <path d="M5 3h2v1h1v2h1V5h1V3H8V2H4v1H3v1h2V3z"/>
            <path d="M5 5h2v1H5zm-3 6h1v2H2zm4-4h1v1H6zm5 2h-1v2h3v-1h-2V9z"/>
            <path d="M15 9V7h-2v1h1v1h-1v1h2v2h-1v1h1v2h-1v-1h-1v1h-3v-3H9v-1H8V9h2V7h3V4h-1V2h-2v1h1v2h1v1H9v2H7v1H5V8H3v1h1v2h1v-1h1v1H5v1h1v2h1v1H5v-3H4v3H1v-1h1v-1H1V8h2V4H1v1h1v1H1v1H0v9h16V9h-1z"/>
            <path d="M12 13h1v1h-1z"/>
            <path d="M1 8h1v5H1zm0 6h1v1H1zm4-2h1v1H5zM3 4v4h1V5h1V4H3zm2-1h2v1H5zm2 1h1v1H7zm3-1h1v1h-1zM9 9h1v2H9zm1 2h1v4h-1zm2-4h1v1h-1zm1 1h1v1h-1zm-2 1h2v1h-2zm2 1h2v1h-2z" fill="#f8d0b0"/>
        </g>
    </g>
</svg>
