<svg xmlns="http://www.w3.org/2000/svg" viewBox="0 0 16 16">
    <defs>
        <style>
            .cls-1{fill:#f8fcf8}
        </style>
    </defs>
    <g id="Layer_2" data-name="Layer 2">
        <g id="_22" data-name="22">
            <path class="cls-1" d="M0 0h16v16H0z"/>
            <path fill="#000400" d="M1 1h14v14H1z"/>
            <path d="M1 14h1v1H1zm10 0h1v1h-1z" fill="#3e3f3e"/>
            <path fill="#98fcf8" d="M6 10V9H5V8H4V6h1V5h1V3H5V2H2v11h3v-1h1v-1h1v-1H6z"/>
            <path d="M10 14h1v1h-1zm4 0h1v1h-1z" fill="#101010"/>
            <path class="cls-1" d="M13 11h-1V7h-1v4h-1V7H9v5h2v1h1v-1h1v-1z"/>
        </g>
    </g>
</svg>
