<svg xmlns="http://www.w3.org/2000/svg" viewBox="0 0 16 16"><defs><style>.cls-1{fill:#f8fcf8;}.cls-2{fill:#000400;}.cls-3{fill:#3e3f3e;}.cls-4{fill:#98fcf8;}.cls-5{fill:#101010;}</style></defs><title>22</title><g id="Layer_2" data-name="Layer 2"><g id="_22" data-name="22"><rect class="cls-1" width="16" height="16"/><rect class="cls-2" x="1" y="1" width="14" height="14"/><rect class="cls-3" x="1" y="14" width="1" height="1"/><rect class="cls-3" x="11" y="14" width="1" height="1"/><polygon class="cls-4" points="6 10 6 9 5 9 5 8 4 8 4 7 4 6 5 6 5 5 6 5 6 4 6 3 5 3 5 2 2 2 2 7 2 13 3 13 4 13 5 13 5 12 6 12 6 11 7 11 7 10 6 10"/><rect class="cls-5" x="10" y="14" width="1" height="1"/><rect class="cls-5" x="14" y="14" width="1" height="1"/><polygon class="cls-1" points="13 11 12 11 12 7 11 7 11 11 10 11 10 7 9 7 9 12 10 12 11 12 11 13 12 13 12 12 13 12 13 11"/></g></g></svg>