<svg xmlns="http://www.w3.org/2000/svg" viewBox="0 0 16 16">
    <defs>
        <style>
            .cls-1{fill:#f8fcf8}.cls-3{fill:#3e3f3e}
        </style>
    </defs>
    <g id="Layer_2" data-name="Layer 2">
        <g id="_23" data-name="23">
            <path class="cls-1" d="M0 0h16v16H0z"/>
            <path fill="#000400" d="M1 1h14v14H1z"/>
            <path class="cls-3" d="M1 14h1v1H1zm9 0h1v1h-1z"/>
            <path fill="#101010" d="M9 14h1v1H9z"/>
            <path class="cls-3" d="M14 14h1v1h-1z"/>
            <path fill="#98fcf8" d="M4 7h1V6h1V5h1V4H6V3H5V2H2v11h3v-1h1v-1h1v-1H5V9H4V7z"/>
            <path class="cls-1" d="M13 8V7H9v3h3v2H9v1h4V9h-3V8h3z"/>
        </g>
    </g>
</svg>
