<svg xmlns="http://www.w3.org/2000/svg" viewBox="0 0 16 16">
    <defs>
        <style>
            .cls-1{fill:#f8fcf8}
        </style>
    </defs>
    <g id="Layer_2" data-name="Layer 2">
        <g id="_24" data-name="24">
            <path class="cls-1" d="M0 0h16v16H0z"/>
            <path fill="#000400" d="M1 1h14v14H1z"/>
            <path d="M1 14h1v1H1zm13 0h1v1h-1z" fill="#3e3f3e"/>
            <path fill="#98fcf8" d="M4 7h1V6h1V5h1V4H6V3H5V2H2v11h3v-1h1v-1h1v-1H5V9H4V7z"/>
            <path class="cls-1" d="M10 7h3v1h-3zM9 8v5h4V9h-3V8zm3 2v2h-2v-2z"/>
        </g>
    </g>
</svg>
