<svg xmlns="http://www.w3.org/2000/svg" viewBox="0 0 16 16"><defs><style>.cls-1{fill:#f8fcf8;}.cls-2{fill:#000400;}.cls-3{fill:#f8eca0;}</style></defs><title>25</title><g id="Layer_2" data-name="Layer 2"><g id="_25" data-name="25"><rect class="cls-1" x="1" y="1" width="14" height="14"/><polygon class="cls-2" points="12 5 11 5 11 4 10 4 10 3 9 3 9 2 7 2 7 3 6 3 6 4 5 4 5 5 4 5 4 7 3 7 3 11 4 11 4 12 5 12 6 12 7 12 7 13 5 13 5 14 7 14 9 14 11 14 11 13 9 13 9 12 10 12 11 12 12 12 12 11 13 11 13 7 12 7 12 5"/><path class="cls-2" d="M0,0V16H16V0ZM15,14H14v1H2V14H1V2H2V1H14V2h1Z"/><rect class="cls-3" width="1" height="1"/><rect class="cls-3" x="15" width="1" height="1"/><rect class="cls-3" x="15" y="15" width="1" height="1"/><rect class="cls-3" y="15" width="1" height="1"/><polygon class="cls-1" points="9 6 9 8 8 8 8 7 7 7 7 6 6 6 6 11 7 11 7 9 8 9 8 10 9 10 9 11 10 11 10 6 9 6"/></g></g></svg>