<svg xmlns="http://www.w3.org/2000/svg" viewBox="0 0 16 16">
    <defs>
        <style>
            .cls-1{fill:#f8fcf8}.cls-2{fill:#000400}
        </style>
    </defs>
    <g id="Layer_2" data-name="Layer 2">
        <g id="_25" data-name="25">
            <path class="cls-1" d="M1 1h14v14H1z"/>
            <path class="cls-2" d="M12 5h-1V4h-1V3H9V2H7v1H6v1H5v1H4v2H3v4h1v1h3v1H5v1h6v-1H9v-1h3v-1h1V7h-1V5z"/>
            <path class="cls-2" d="M0 0v16h16V0zm15 14h-1v1H2v-1H1V2h1V1h12v1h1z"/>
            <path d="M0 0h1v1H0zm15 0h1v1h-1zm0 15h1v1h-1zM0 15h1v1H0z" fill="#f8eca0"/>
            <path class="cls-1" d="M9 6v2H8V7H7V6H6v5h1V9h1v1h1v1h1V6H9z"/>
        </g>
    </g>
</svg>
