<svg xmlns="http://www.w3.org/2000/svg" viewBox="0 0 16 16"><defs><style>.cls-1{fill:#f8eca0;}.cls-2{fill:#f82000;}.cls-3{fill:#f8fcf8;}.cls-4{fill:#000400;}</style></defs><title>26</title><g id="Layer_2" data-name="Layer 2"><g id="_26" data-name="26"><rect class="cls-1" width="16" height="16"/><rect class="cls-2" x="3" y="10" width="3" height="3"/><polygon class="cls-3" points="7 14 3 14 3 16 14 16 14 14 14 12 7 12 7 14"/><polygon class="cls-3" points="14 8 12 8 12 10 14 10 14 9 16 9 16 8 14 8"/><rect class="cls-4" x="3" y="10" width="1" height="1"/><rect class="cls-4" x="4" y="8" width="1" height="2"/><rect class="cls-4" x="5" y="10" width="1" height="1"/><rect class="cls-4" x="4" y="15" width="1" height="1"/><polygon class="cls-4" points="7 11 6 11 6 13 3 13 3 11 2 11 2 16 3 16 3 14 6 14 6 16 7 16 7 12 8 12 8 11 7 11"/><rect class="cls-4" x="8" y="12" width="1" height="1"/><rect class="cls-4" x="8" y="14" width="1" height="1"/><rect class="cls-4" x="10" y="12" width="1" height="1"/><rect class="cls-4" x="10" y="14" width="1" height="1"/><rect class="cls-4" x="9" y="11" width="1" height="1"/><rect class="cls-4" x="12" y="14" width="1" height="1"/><polygon class="cls-4" points="12 11 12 8 11 8 11 12 12 12 12 13 13 13 13 12 14 12 14 16 15 16 15 12 15 11 12 11"/></g></g></svg>