<svg xmlns="http://www.w3.org/2000/svg" viewBox="0 0 16 16">
    <defs>
        <style>
            .cls-4{fill:#000400}
        </style>
    </defs>
    <g id="Layer_2" data-name="Layer 2">
        <g id="_26" data-name="26">
            <path fill="#f8eca0" d="M0 0h16v16H0z"/>
            <path fill="#f82000" d="M3 10h3v3H3z"/>
            <path d="M7 14H3v2h11v-4H7v2zm7-6h-2v2h2V9h2V8h-2z" fill="#f8fcf8"/>
            <path class="cls-4" d="M3 10h1v1H3zm1-2h1v2H4zm1 2h1v1H5zm-1 5h1v1H4z"/>
            <path class="cls-4" d="M7 11H6v2H3v-2H2v5h1v-2h3v2h1v-4h1v-1H7zm1 1h1v1H8zm0 2h1v1H8zm2-2h1v1h-1zm0 2h1v1h-1zm-1-3h1v1H9zm3 3h1v1h-1z"/>
            <path class="cls-4" d="M12 11V8h-1v4h1v1h1v-1h1v4h1v-5h-3z"/>
        </g>
    </g>
</svg>
