<svg xmlns="http://www.w3.org/2000/svg" viewBox="0 0 16 16"><defs><style>.cls-1{fill:#f8eca0;}.cls-2{fill:#f89c10;}.cls-3{fill:#000400;}.cls-4{fill:#f8d0b0;}</style></defs><title>27</title><g id="Layer_2" data-name="Layer 2"><g id="_27" data-name="27"><rect class="cls-1" width="16" height="16"/><rect class="cls-2" x="9" y="9" width="5" height="6"/><polygon class="cls-3" points="15 9 15 8 15 0 14 0 14 8 10 8 10 0 9 0 9 8 0 8 0 9 8 9 8 10 8 12 0 12 0 13 8 13 8 14 9 14 9 10 10 10 10 9 13 9 13 10 14 10 14 14 13 14 13 15 10 15 10 14 9 14 9 16 10 16 15 16 15 15 16 15 16 10 16 9 15 9"/><polygon class="cls-3" points="12 13 11 13 11 14 12 14 13 14 13 10 12 10 12 13"/><rect class="cls-4" x="10" width="4" height="8"/><rect class="cls-4" y="9" width="8" height="3"/><rect class="cls-4" x="9" y="10" width="1" height="2"/><rect class="cls-4" x="10" y="9" width="1" height="1"/></g></g></svg>