<svg xmlns="http://www.w3.org/2000/svg" viewBox="0 0 16 16">
    <defs>
        <style>
            .cls-3{fill:#000400}
        </style>
    </defs>
    <g id="Layer_2" data-name="Layer 2">
        <g id="_27" data-name="27">
            <path fill="#f8eca0" d="M0 0h16v16H0z"/>
            <path fill="#f89c10" d="M9 9h5v6H9z"/>
            <path class="cls-3" d="M15 9V0h-1v8h-4V0H9v8H0v1h8v3H0v1h8v1h1v-4h1V9h3v1h1v4h-1v1h-3v-1H9v2h6v-1h1V9h-1z"/>
            <path class="cls-3" d="M12 13h-1v1h2v-4h-1v3z"/>
            <path d="M10 0h4v8h-4zM0 9h8v3H0zm9 1h1v2H9zm1-1h1v1h-1z" fill="#f8d0b0"/>
        </g>
    </g>
</svg>
