<svg xmlns="http://www.w3.org/2000/svg" viewBox="0 0 16 15"><defs><style>.cls-1{fill:#d03000;}.cls-2{fill:#f8d0b0;}</style></defs><title>28</title><g id="Layer_2" data-name="Layer 2"><g id="_28" data-name="28"><polygon points="13 12 4 12 4 13 3 13 3 14 4 14 4 15 13 15 13 14 14 14 14 13 13 13 13 12"/><polygon points="4 7 3 7 2 7 2 6 1 6 1 9 2 9 2 11 3 11 4 11 4 10 3 10 3 8 4 8 4 10 5 10 5 7 4 7"/><polygon points="12 10 5 10 5 11 13 11 13 10 14 10 14 9 12 9 12 10"/><rect x="14" y="7" width="1" height="2"/><polygon points="15 3 13 3 13 4 15 4 15 7 16 7 16 3 15 3"/><path d="M4,3V5h9V4H11V2H9V0H8V2H6V4H5V2H0V6H1V3ZM7,3h3V4H7Z"/><rect class="cls-1" x="1" y="4" width="3" height="1"/><rect class="cls-1" x="7" y="3" width="3" height="1"/><rect class="cls-1" x="13" y="4" width="2" height="1"/><rect class="cls-1" x="2" y="6" width="13" height="1"/><rect class="cls-1" x="5" y="8" width="9" height="1"/><rect class="cls-1" x="3" y="8" width="1" height="2"/><rect class="cls-2" x="5" y="9" width="7" height="1"/><rect class="cls-2" x="5" y="7" width="9" height="1"/><rect class="cls-2" x="1" y="5" width="14" height="1"/><rect class="cls-2" x="1" y="3" width="3" height="1"/></g></g></svg>