<svg xmlns="http://www.w3.org/2000/svg" viewBox="0 0 16 15">
    <g data-name="Layer 2">
        <g data-name="28">
            <path d="M13 12H4v1H3v1h1v1h9v-1h1v-1h-1v-1zM4 7H2V6H1v3h1v2h2v-1H3V8h1v2h1V7H4zm8 3H5v1h8v-1h1V9h-2v1zm2-3h1v2h-1zm1-4h-2v1h2v3h1V3h-1zM4 3v2h9V4h-2V2H9V0H8v2H6v2H5V2H0v4h1V3zm3 0h3v1H7z"/>
            <path d="M1 4h3v1H1zm6-1h3v1H7zm6 1h2v1h-2zM2 6h13v1H2zm3 2h9v1H5zM3 8h1v2H3z" fill="#d03000"/>
            <path d="M5 9h7v1H5zm0-2h9v1H5zM1 5h14v1H1zm0-2h3v1H1z" fill="#f8d0b0"/>
        </g>
    </g>
</svg>
