<svg xmlns="http://www.w3.org/2000/svg" viewBox="0 0 16 16"><defs><style>.cls-1{fill:#08d4f8;}.cls-2{fill:#f8eca0;}.cls-3{fill:#28f030;}.cls-4{fill:#000400;}</style></defs><title>29</title><g id="Layer_2" data-name="Layer 2"><g id="_29" data-name="29"><polygon class="cls-1" points="12 8 12 4 11 4 11 0 4 0 4 14 3 14 3 16 4 16 11 16 11 13 12 13 12 10 11 10 11 8 12 8"/><rect class="cls-2" width="3" height="16"/><rect class="cls-2" x="13" width="3" height="16"/><polygon class="cls-3" points="2 2 1 2 1 4 2 4 2 7 3 7 3 8 2 8 2 7 1 7 1 9 2 9 2 11 1 11 1 12 2 12 2 13 1 13 1 16 2 16 2 14 3 14 3 12 4 12 4 8 4 7 4 0 2 0 2 2"/><polygon class="cls-3" points="14 6 14 3 13 3 13 1 14 1 14 0 12 0 12 1 12 4 13 4 13 8 14 8 14 7 15 7 15 6 14 6"/><polygon class="cls-3" points="12 9 12 10 13 10 13 12 14 12 14 10 14 9 13 9 13 8 12 8 12 9"/><rect class="cls-3" x="14" y="13" width="1" height="1"/><polygon class="cls-3" points="13 13 12 13 12 16 13 16 14 16 14 15 13 15 13 13"/><rect class="cls-4" x="3" width="1" height="5"/><rect class="cls-4" x="4" y="5" width="1" height="3"/><rect class="cls-4" x="3" y="8" width="1" height="2"/><rect class="cls-4" x="4" y="10" width="1" height="2"/><rect class="cls-4" x="3" y="12" width="1" height="2"/><rect class="cls-4" x="2" y="14" width="1" height="2"/><rect class="cls-4" x="11" width="1" height="4"/><rect class="cls-4" x="12" y="4" width="1" height="4"/><rect class="cls-4" x="11" y="8" width="1" height="2"/><rect class="cls-4" x="12" y="10" width="1" height="3"/><rect class="cls-4" x="11" y="13" width="1" height="3"/></g></g></svg>