<svg xmlns="http://www.w3.org/2000/svg" viewBox="0 0 16 16">
    <g data-name="Layer 2">
        <g data-name="29">
            <path fill="#08d4f8" d="M12 8V4h-1V0H4v14H3v2h8v-3h1v-3h-1V8h1z"/>
            <path d="M0 0h3v16H0zm13 0h3v16h-3z" fill="#f8eca0"/>
            <path d="M2 2H1v2h1v3h1v1H2V7H1v2h1v2H1v1h1v1H1v3h1v-2h1v-2h1V0H2v2zm12 4V3h-1V1h1V0h-2v4h1v4h1V7h1V6h-1zm-2 3v1h1v2h1V9h-1V8h-1v1zm2 4h1v1h-1zm-1 0h-1v3h2v-1h-1v-2z" fill="#28f030"/>
            <path d="M3 0h1v5H3zm1 5h1v3H4zM3 8h1v2H3zm1 2h1v2H4zm-1 2h1v2H3zm-1 2h1v2H2zm9-14h1v4h-1zm1 4h1v4h-1zm-1 4h1v2h-1zm1 2h1v3h-1zm-1 3h1v3h-1z" fill="#000400"/>
        </g>
    </g>
</svg>
