<svg xmlns="http://www.w3.org/2000/svg" viewBox="0 0 16 16">
    <defs>
        <style>
            .cls-2{fill:#f8eca0}.cls-3{fill:#000400}
        </style>
    </defs>
    <g id="Layer_2" data-name="Layer 2">
        <g id="_3" data-name="3">
            <path fill="#28f030" d="M0 0h16v16H0z"/>
            <path class="cls-2" d="M0 0v8h1V6h1V4h1V3h1V2h5v1h1v2h1v2h3v1h1v6h1V0H0zm15 15h1v1h-1z"/>
            <path class="cls-2" d="M9 8h1v4H9zM4 3h2v1H4zM3 4h1v2H3zM2 6h1v2H2zM1 8h1v3H1zm1 3h1v2H2zm1 2h1v1H3zm-3 2h5v1H0zm0-3h1v2H0z"/>
            <path class="cls-3" d="M4 2h5v1H4zM3 3h1v1H3zM2 4h1v2H2zM1 6h1v2H1zm14 8V8h-1v6h-1v1H9v-1H8v-1H7v1H3v-1H2v-2H1V8H0v4h1v2H0v1h5v1h10v-1h1v-1h-1z"/>
            <path class="cls-3" d="M8 8h1v4H8zM4 5h1v3H4zm2 0h1v3H6zm4 4h1v2h-1zm2 0h1v2h-1zM9 7v1h5V7h-3V5h-1v2H9zm0-4h1v2H9z"/>
            <path d="M9 7h1V5H9V3H7v1h1v4h1V7zM7 8h1v4H7zm6 0v5h-1v1H9v1h4v-1h1V8h-1z" fill="#08d4f8"/>
        </g>
    </g>
</svg>
