<svg xmlns="http://www.w3.org/2000/svg" viewBox="0 0 16 16"><defs><style>.cls-1{fill:#28f030;}.cls-2{fill:#f8eca0;}.cls-3{fill:#000400;}.cls-4{fill:#08d4f8;}</style></defs><title>3</title><g id="Layer_2" data-name="Layer 2"><g id="_3" data-name="3"><rect class="cls-1" width="16" height="16"/><polygon class="cls-2" points="0 0 0 2 0 3 0 4 0 6 0 8 1 8 1 6 2 6 2 4 3 4 3 3 4 3 4 2 9 2 9 3 10 3 10 5 11 5 11 7 14 7 14 8 15 8 15 14 16 14 16 8 16 7 16 5 16 3 16 2 16 0 0 0"/><rect class="cls-2" x="15" y="15" width="1" height="1"/><rect class="cls-2" x="9" y="8" width="1" height="4"/><rect class="cls-2" x="4" y="3" width="2" height="1"/><rect class="cls-2" x="3" y="4" width="1" height="2"/><rect class="cls-2" x="2" y="6" width="1" height="2"/><rect class="cls-2" x="1" y="8" width="1" height="3"/><rect class="cls-2" x="2" y="11" width="1" height="2"/><rect class="cls-2" x="3" y="13" width="1" height="1"/><rect class="cls-2" y="15" width="5" height="1"/><rect class="cls-2" y="12" width="1" height="2"/><rect class="cls-3" x="4" y="2" width="5" height="1"/><rect class="cls-3" x="3" y="3" width="1" height="1"/><rect class="cls-3" x="2" y="4" width="1" height="2"/><rect class="cls-3" x="1" y="6" width="1" height="2"/><polygon class="cls-3" points="15 14 15 8 14 8 14 14 13 14 13 15 9 15 9 14 8 14 8 13 7 13 7 14 3 14 3 13 2 13 2 11 1 11 1 8 0 8 0 12 1 12 1 14 0 14 0 15 5 15 5 16 15 16 15 15 16 15 16 14 15 14"/><rect class="cls-3" x="8" y="8" width="1" height="4"/><rect class="cls-3" x="4" y="5" width="1" height="3"/><rect class="cls-3" x="6" y="5" width="1" height="3"/><rect class="cls-3" x="10" y="9" width="1" height="2"/><rect class="cls-3" x="12" y="9" width="1" height="2"/><polygon class="cls-3" points="9 7 9 8 14 8 14 7 11 7 11 5 10 5 10 7 9 7"/><rect class="cls-3" x="9" y="3" width="1" height="2"/><polygon class="cls-4" points="9 7 10 7 10 5 9 5 9 4 9 3 7 3 7 4 8 4 8 8 9 8 9 7"/><rect class="cls-4" x="7" y="8" width="1" height="4"/><polygon class="cls-4" points="13 8 13 13 12 13 12 14 9 14 9 15 13 15 13 14 14 14 14 8 13 8"/></g></g></svg>