<svg xmlns="http://www.w3.org/2000/svg" viewBox="0 0 16 16">
    <g data-name="Layer 2">
        <g data-name="30">
            <path fill="#08d4f8" d="M0 6h16v7H0z"/>
            <path d="M0 0h16v3H0zm0 13h16v3H0z" fill="#f8eca0"/>
            <path d="M3 2H2v1H1V2H0v2h5V3H3V2zm4-1H6v1H5v1h5V2H7V1zm8 1V1h-5v1h4v1h2V2h-1zM0 14v2h1v-1h1v1h1v-1h1v-1H0zm4 0h1v1h1v-2H4v1zm4-2H6v1h1v1h1v1h1v-1h1v-1H8v-1zm2 0v1h1v1h1v-1h1v-1h-3zm3 2h2v1h1v-2h-3v1z" fill="#28f030"/>
            <path d="M14 3V2h-4v1H5v1H0v3h1v1h5V7h4V6h4v1h2V3h-2zM0 13h4v1H0zm4-1h2v1H4zm2-1h2v1H6zm2 1h2v1H8zm6-1h-4v1h3v1h3v-1h-2v-1z" fill="#000400"/>
        </g>
    </g>
</svg>
