<svg xmlns="http://www.w3.org/2000/svg" viewBox="0 0 16 16"><defs><style>.cls-1{fill:#08d4f8;}.cls-2{fill:#f8eca0;}.cls-3{fill:#28f030;}.cls-4{fill:#000400;}</style></defs><title>30</title><g id="Layer_2" data-name="Layer 2"><g id="_30" data-name="30"><rect class="cls-1" y="6" width="16" height="7"/><rect class="cls-2" width="16" height="3"/><rect class="cls-2" y="13" width="16" height="3"/><polygon class="cls-3" points="3 2 2 2 2 3 1 3 1 2 0 2 0 4 1 4 2 4 3 4 5 4 5 3 3 3 3 2"/><polygon class="cls-3" points="7 1 6 1 6 2 5 2 5 3 10 3 10 2 7 2 7 1"/><polygon class="cls-3" points="15 2 15 1 10 1 10 2 14 2 14 3 16 3 16 2 15 2"/><polygon class="cls-3" points="0 14 0 16 1 16 1 15 2 15 2 16 3 16 3 15 4 15 4 14 1 14 0 14"/><polygon class="cls-3" points="4 14 5 14 5 15 6 15 6 14 6 13 4 13 4 14"/><polygon class="cls-3" points="8 12 6 12 6 13 7 13 7 14 8 14 8 15 9 15 9 14 10 14 10 13 8 13 8 12"/><polygon class="cls-3" points="10 12 10 13 11 13 11 14 12 14 12 13 13 13 13 12 10 12"/><polygon class="cls-3" points="13 14 15 14 15 15 16 15 16 14 16 13 13 13 13 14"/><polygon class="cls-4" points="14 3 14 2 10 2 10 3 5 3 5 4 0 4 0 6 0 7 1 7 1 8 6 8 6 7 10 7 10 6 14 6 14 7 16 7 16 6 16 4 16 3 14 3"/><rect class="cls-4" y="13" width="4" height="1"/><rect class="cls-4" x="4" y="12" width="2" height="1"/><rect class="cls-4" x="6" y="11" width="2" height="1"/><rect class="cls-4" x="8" y="12" width="2" height="1"/><polygon class="cls-4" points="14 11 10 11 10 12 13 12 13 13 16 13 16 12 14 12 14 11"/></g></g></svg>