<svg xmlns="http://www.w3.org/2000/svg" viewBox="0 0 16 16">
    <g data-name="Layer 2">
        <g data-name="31">
            <path d="M0 13h3v3H0zM0 0v2h11v3h2v11h3V0H0z" fill="#f8eca0"/>
            <path d="M0 6h12v6H0zm4 6h8v4H4z" fill="#08d4f8"/>
            <path d="M0 2h2v1H0zm13 1h-2V2H7V1H2v1h4v1h4v1h2v1h1V3zm1 6V7h1V6h-1V5h-1v3h-1v4h1v4h1v-1h1v-1h-1v-3h-1V9h1zM0 12h2v1H0zm2 2h1v1H1v1h3v-3H2v1z" fill="#28f030"/>
            <path d="M13 8V5h-1V4h-2V3H6V2H2v1H0v4h2V6h4v1h4v1h1v4h1V8h1zm-1 4h1v4h-1zm-8 1h1v3H4zm-2-1h2v1H2zm-2-1h2v1H0z" fill="#000400"/>
        </g>
    </g>
</svg>
