<svg xmlns="http://www.w3.org/2000/svg" viewBox="0 0 16 16">
    <g data-name="Layer 2">
        <g data-name="32">
            <path fill="#08d4f8" d="M4 7h12v9H4z"/>
            <path d="M0 0v16h3V3h13V0H0zm13 14h3v2h-3z" fill="#f8eca0"/>
            <path d="M1 15h1v1H1zM11 2h-1v1H9V2H8V1H7v1H4v1H2v1h1v1H2v1H1v2h1v2H1v2h1v3h1v1h1v-3H3V6h1V4h1V3h3v1h5V3h-2V2zm4 0V1h-1v1h-1v1h3V2h-1zm-3 12v2h1v-1h1v-1h-2zm2 0h1v1h1v-2h-2v1z" fill="#28f030"/>
            <path d="M13 3v1H8V3H5v1H4v2H3v7h1V8h1V7h4v1h5V7h2V3h-3zM4 13h1v3H4zm7 1h1v2h-1zm1-1h2v1h-2zm2-1h2v1h-2z" fill="#000400"/>
        </g>
    </g>
</svg>
