<svg xmlns="http://www.w3.org/2000/svg" viewBox="0 0 16 16">
    <g data-name="Layer 2">
        <g data-name="33">
            <path fill="#f8eca0" d="M0 0h16v16H0z"/>
            <path d="M1 13h1v-1H1V6h1V5H1V4H0v12h2v-2H1v-1zM1 3h1v1H1zm1 8h1v1H2zm0-9h1v1H2zm11 0h1v1h-1zm1 1h1v1h-1zm-1 8h1v1h-1zm-1 1h-1v-1H5v1H3v1h1v2H3v1h9v-3h1v-1h-1zm1 1h1v1h-1zm2-9v1h-1v1h1v6h-1v1h1v1h-1v2h2V4h-1zM2 13h1v1H2zM5 2V1H4V0H3v2h2zm6 0h2V1h-1V0H5v1h6v1zm2 2V3h-2v1h1v6h-1v1h2V5h1V4h-1zm-9 6V4h1V3H3v1H2v1h1v6h2v-1H4zm2-1H5v1h6V9h-1V3h1V2H5v1h1zm3-6v6H7V3z" fill="#000400"/>
            <path fill="#08d4f8" d="M4 0h1v1H4z"/>
            <path d="M2 2h1V0H1v1h1v1zm11 0h1V0h-2v1h1v1zM2 11h1V5H2v1H1v6h1v-1zm3-7H4v6h1V9h1V3H5v1zm2-1h2v6H7zm5 7V4h-1V3h-1v6h1v1h1zm2-4V5h-1v6h1v1h1V6h-1zM3 14H2v2h1v-1h1v-2H3v1zm9-1h1v3h-1z" fill="#28f030"/>
        </g>
    </g>
</svg>
