<svg xmlns="http://www.w3.org/2000/svg" viewBox="0 0 16 16"><defs><style>.cls-1{fill:#f8eca0;}.cls-2{fill:#000400;}.cls-3{fill:#08d4f8;}.cls-4{fill:#28f030;}</style></defs><title>33</title><g id="Layer_2" data-name="Layer 2"><g id="_33" data-name="33"><rect class="cls-1" width="16" height="16"/><polygon class="cls-2" points="1 13 2 13 2 12 1 12 1 6 2 6 2 5 1 5 1 4 0 4 0 16 1 16 2 16 2 14 1 14 1 13"/><rect class="cls-2" x="1" y="3" width="1" height="1"/><rect class="cls-2" x="2" y="11" width="1" height="1"/><rect class="cls-2" x="2" y="2" width="1" height="1"/><rect class="cls-2" x="13" y="2" width="1" height="1"/><rect class="cls-2" x="14" y="3" width="1" height="1"/><rect class="cls-2" x="13" y="11" width="1" height="1"/><polygon class="cls-2" points="12 12 11 12 11 11 5 11 5 12 4 12 3 12 3 13 4 13 4 15 3 15 3 16 4 16 12 16 12 13 13 13 13 12 12 12"/><rect class="cls-2" x="13" y="13" width="1" height="1"/><polygon class="cls-2" points="15 4 15 5 14 5 14 6 15 6 15 12 14 12 14 13 15 13 15 14 14 14 14 16 16 16 16 14 16 6 16 5 16 4 15 4"/><rect class="cls-2" x="2" y="13" width="1" height="1"/><polygon class="cls-2" points="5 2 5 1 4 1 4 0 3 0 3 2 4 2 5 2"/><polygon class="cls-2" points="11 2 12 2 13 2 13 1 12 1 12 0 11 0 5 0 5 1 11 1 11 2"/><polygon class="cls-2" points="13 4 13 3 11 3 11 4 12 4 12 5 12 10 11 10 11 11 12 11 13 11 13 5 14 5 14 4 13 4"/><polygon class="cls-2" points="4 10 4 4 5 4 5 3 3 3 3 4 2 4 2 5 3 5 3 11 4 11 5 11 5 10 4 10"/><path class="cls-2" d="M6,9H5v1h6V9H10V3h1V2H5V3H6ZM9,3V9H7V3Z"/><rect class="cls-3" x="4" width="1" height="1"/><polygon class="cls-4" points="2 2 3 2 3 1 3 0 1 0 1 1 2 1 2 2"/><polygon class="cls-4" points="13 2 14 2 14 1 14 0 12 0 12 1 13 1 13 2"/><polygon class="cls-4" points="2 11 3 11 3 5 2 5 2 6 1 6 1 12 2 12 2 11"/><polygon class="cls-4" points="5 4 4 4 4 10 5 10 5 9 6 9 6 3 5 3 5 4"/><rect class="cls-4" x="7" y="3" width="2" height="6"/><polygon class="cls-4" points="12 10 12 4 11 4 11 3 10 3 10 9 11 9 11 10 12 10"/><polygon class="cls-4" points="14 6 14 5 13 5 13 11 14 11 14 12 15 12 15 6 14 6"/><polygon class="cls-4" points="3 14 2 14 2 16 3 16 3 15 4 15 4 13 3 13 3 14"/><rect class="cls-4" x="12" y="13" width="1" height="3"/></g></g></svg>