<svg xmlns="http://www.w3.org/2000/svg" viewBox="0 0 16 16">
    <defs>
        <style>
            .cls-4{fill:#28f030}
        </style>
    </defs>
    <g id="Layer_2" data-name="Layer 2">
        <g id="_34" data-name="34">
            <path fill="#08d4f8" d="M4 0v4H0v8h12V0H4z"/>
            <path d="M0 0h2v2H0zm13 0v11h-2v2H0v3h16V0h-3z" fill="#f8eca0"/>
            <path d="M1 6h2V4h1V0H3v2H2v1H0v4h1V6zm10-6h1v2h-1zm1 2h1v3h-1zm-1 3h1v3h-1zm1 3h1v1h-1zm-1 1h1v1h-1zm-1 1h1v1h-1zm-2 1h2v1H8zm-2 0H2v1h3v1h3v-1H6v-1zm-6 1h2v1H0z" fill="#000400"/>
            <path class="cls-4" d="M0 13v2h1v-1h1v-1H0zm2-1v1h1v1h1v-1h1v-1H2zm12-5h-1V5h-1v3h1v1h-1v1h-1v1h-1v1H8v1H5v1h2v1h1v-1h1v-1h1v1h1v-2h1v-1h1v-1h1V9h1V8h-1V7zm0-2h1v1h-1zm-1-1h1V1h-1V0h-1v2h1v2z"/>
            <path class="cls-4" d="M14 10h1v1h-1zm-2 2h1v1h-1zM2 3V2h1V0H2v1H1v1H0v1h2z"/>
        </g>
    </g>
</svg>
