<svg xmlns="http://www.w3.org/2000/svg" viewBox="0 0 16 16"><defs><style>.cls-1{fill:#08d4f8;}.cls-2{fill:#f8eca0;}.cls-3{fill:#000400;}.cls-4{fill:#28f030;}</style></defs><title>34</title><g id="Layer_2" data-name="Layer 2"><g id="_34" data-name="34"><polygon class="cls-1" points="4 0 4 4 0 4 0 12 4 12 12 12 12 0 4 0"/><rect class="cls-2" width="2" height="2"/><polygon class="cls-2" points="13 0 13 11 11 11 11 13 0 13 0 16 13 16 14 16 16 16 16 0 13 0"/><polygon class="cls-3" points="1 6 3 6 3 4 4 4 4 3 4 2 4 0 3 0 3 2 2 2 2 3 0 3 0 6 0 7 1 7 1 6"/><rect class="cls-3" x="11" width="1" height="2"/><rect class="cls-3" x="12" y="2" width="1" height="3"/><rect class="cls-3" x="11" y="5" width="1" height="3"/><rect class="cls-3" x="12" y="8" width="1" height="1"/><rect class="cls-3" x="11" y="9" width="1" height="1"/><rect class="cls-3" x="10" y="10" width="1" height="1"/><rect class="cls-3" x="8" y="11" width="2" height="1"/><polygon class="cls-3" points="6 11 2 11 2 12 5 12 5 13 8 13 8 12 6 12 6 11"/><rect class="cls-3" y="12" width="2" height="1"/><polygon class="cls-4" points="0 13 0 15 1 15 1 14 2 14 2 13 1 13 0 13"/><polygon class="cls-4" points="2 12 2 13 3 13 3 14 4 14 4 13 5 13 5 12 2 12"/><polygon class="cls-4" points="14 7 13 7 13 5 12 5 12 8 13 8 13 9 12 9 12 10 11 10 11 11 10 11 10 12 8 12 8 13 5 13 5 14 7 14 7 15 8 15 8 14 9 14 9 13 10 13 10 14 11 14 11 13 11 12 12 12 12 11 13 11 13 10 14 10 14 9 15 9 15 8 14 8 14 7"/><rect class="cls-4" x="14" y="5" width="1" height="1"/><polygon class="cls-4" points="13 4 14 4 14 1 13 1 13 0 12 0 12 2 13 2 13 4"/><rect class="cls-4" x="14" y="10" width="1" height="1"/><rect class="cls-4" x="12" y="12" width="1" height="1"/><polygon class="cls-4" points="2 3 2 2 3 2 3 0 2 0 2 1 1 1 1 2 0 2 0 3 1 3 2 3"/></g></g></svg>