<svg xmlns="http://www.w3.org/2000/svg" viewBox="0 0 16 15"><defs><style>.cls-1{fill:#d03000;}.cls-2{fill:#f8d0b0;}</style></defs><title>35</title><g id="Layer_2" data-name="Layer 2"><g id="_35" data-name="35"><polygon points="13 12 4 12 4 13 3 13 3 14 4 14 4 15 13 15 13 14 14 14 14 13 13 13 13 12"/><polygon points="4 6 3 6 2 6 2 5 1 5 1 8 2 8 2 10 3 10 4 10 4 9 3 9 3 7 4 7 4 9 5 9 5 6 4 6"/><polygon points="12 9 5 9 5 10 13 10 13 9 14 9 14 8 12 8 12 9"/><rect x="14" y="6" width="1" height="2"/><polygon points="15 2 13 2 13 3 15 3 15 6 16 6 16 2 15 2"/><path d="M4,2V4h9V3H11V1H9V0H8V1H6V3H5V1H0V5H1V2ZM7,2h3V3H7Z"/><rect class="cls-1" x="1" y="3" width="3" height="1"/><rect class="cls-1" x="7" y="2" width="3" height="1"/><rect class="cls-1" x="13" y="3" width="2" height="1"/><rect class="cls-1" x="2" y="5" width="13" height="1"/><rect class="cls-1" x="5" y="7" width="9" height="1"/><rect class="cls-1" x="3" y="7" width="1" height="2"/><rect class="cls-2" x="5" y="8" width="7" height="1"/><rect class="cls-2" x="5" y="6" width="9" height="1"/><rect class="cls-2" x="1" y="4" width="14" height="1"/><rect class="cls-2" x="1" y="2" width="3" height="1"/></g></g></svg>