<svg xmlns="http://www.w3.org/2000/svg" viewBox="0 0 16 15">
    <g data-name="Layer 2">
        <g data-name="35">
            <path d="M13 12H4v1H3v1h1v1h9v-1h1v-1h-1v-1zM4 6H2V5H1v3h1v2h2V9H3V7h1v2h1V6H4zm8 3H5v1h8V9h1V8h-2v1zm2-3h1v2h-1zm1-4h-2v1h2v3h1V2h-1zM4 2v2h9V3h-2V1H9V0H8v1H6v2H5V1H0v4h1V2zm3 0h3v1H7z"/>
            <path d="M1 3h3v1H1zm6-1h3v1H7zm6 1h2v1h-2zM2 5h13v1H2zm3 2h9v1H5zM3 7h1v2H3z" fill="#d03000"/>
            <path d="M5 8h7v1H5zm0-2h9v1H5zM1 4h14v1H1zm0-2h3v1H1z" fill="#f8d0b0"/>
        </g>
    </g>
</svg>
