<svg xmlns="http://www.w3.org/2000/svg" viewBox="0 0 16 16"><defs><style>.cls-1{fill:#08d4f8;}.cls-2{fill:#f8eca0;}.cls-3{fill:#000400;}.cls-4{fill:#28f030;}</style></defs><title>36</title><g id="Layer_2" data-name="Layer 2"><g id="_36" data-name="36"><polygon class="cls-1" points="12 7 12 0 4 0 4 6 3 6 3 8 4 8 4 12 8 12 8 13 12 13 12 12 16 12 16 7 12 7"/><rect class="cls-2" x="13" width="3" height="3"/><polygon class="cls-2" points="2 0 0 0 0 16 2 16 16 16 16 13 2 13 2 0"/><rect class="cls-3" x="3" width="1" height="2"/><rect class="cls-3" x="4" y="2" width="1" height="2"/><polygon class="cls-3" points="13 4 13 3 12 3 12 0 11 0 11 5 12 5 12 7 13 7 13 8 16 8 16 4 13 4"/><rect class="cls-3" x="3" y="4" width="1" height="2"/><rect class="cls-3" x="12" y="12" width="2" height="1"/><rect class="cls-3" x="14" y="11" width="2" height="1"/><rect class="cls-3" x="2" y="6" width="1" height="2"/><rect class="cls-3" x="3" y="8" width="1" height="3"/><rect class="cls-3" x="5" y="12" width="3" height="1"/><rect class="cls-3" x="8" y="13" width="4" height="1"/><rect class="cls-3" x="4" y="11" width="1" height="1"/><polygon class="cls-4" points="8 13 6 13 5 13 5 12 4 12 4 11 3 11 3 8 2 8 2 6 3 6 3 4 4 4 4 2 3 2 3 1 3 0 1 0 1 1 2 1 2 2 2 3 1 3 1 4 2 4 2 5 1 5 1 10 2 10 2 11 1 11 1 12 2 12 2 13 3 13 4 13 4 14 5 14 5 15 6 15 6 14 7 14 7 15 8 15 8 16 9 16 9 15 10 15 10 16 11 16 11 15 12 15 12 14 8 14 8 13"/><polygon class="cls-4" points="12 14 13 14 13 15 14 15 14 14 14 13 12 13 12 14"/><polygon class="cls-4" points="14 13 15 13 15 14 16 14 16 13 16 12 14 12 14 13"/><polygon class="cls-4" points="14 2 13 2 13 1 14 1 14 0 12 0 12 1 12 3 13 3 13 4 14 4 16 4 16 3 14 3 14 2"/><rect class="cls-4" x="15" y="1" width="1" height="1"/></g></g></svg>