<svg xmlns="http://www.w3.org/2000/svg" viewBox="0 0 16 16"><defs><style>.cls-1{fill:#f8eca0;}.cls-2{fill:#f89c10;}.cls-3{fill:#f8d0b0;}.cls-4{fill:#000400;}</style></defs><title>37</title><g id="Layer_2" data-name="Layer 2"><g id="_37" data-name="37"><rect class="cls-1" width="16" height="16"/><polygon class="cls-2" points="13 7 13 3 9 3 9 5 5 5 5 10 2 10 2 15 5 15 5 12 9 12 9 7 13 7"/><polygon class="cls-2" points="11 8 11 12 9 12 9 15 11 15 15 15 15 8 11 8"/><rect class="cls-3" x="1" y="11" width="2" height="4"/><polygon class="cls-3" points="6 6 5 6 5 5 3 5 3 9 5 9 6 9 6 6"/><polygon class="cls-3" points="9 12 7 12 7 13 6 13 6 15 10 15 10 13 9 13 9 12"/><polygon class="cls-3" points="12 11 12 9 11 9 11 5 10 5 10 9 9 9 9 11 11 11 11 12 12 12 12 13 13 13 13 12 13 11 12 11"/><polygon class="cls-3" points="9 4 9 3 7 3 7 4 8 4 8 5 10 5 10 4 9 4"/><polygon class="cls-4" points="8 4 7 4 7 3 6 3 6 4 4 4 4 5 8 5 8 4"/><polygon class="cls-4" points="10 6 10 5 8 5 8 6 9 6 9 9 10 9 10 6"/><path class="cls-4" d="M15,9V8H14V4H13V3H12V2H7V3h4V4h1V5h1V7H11V8h2V9h1v1h1v4H14v1H6V13H7V12H6V10H5V9H3V7H4V5H3V6H2V9H1v1H0v5H1v1H15V15h1V9ZM2,15V14H1V11H2V10H4v1H5v4Z"/><polygon class="cls-4" points="9 12 11 12 11 11 9 11 9 9 8 9 8 11 7 11 7 12 8 12 9 12"/><rect class="cls-4" x="11" y="12" width="1" height="1"/></g></g></svg>