<svg xmlns="http://www.w3.org/2000/svg" viewBox="0 0 16 16">
    <defs>
        <style>
            .cls-2{fill:#f89c10}.cls-4{fill:#000400}
        </style>
    </defs>
    <g id="Layer_2" data-name="Layer 2">
        <g id="_37" data-name="37">
            <path fill="#f8eca0" d="M0 0h16v16H0z"/>
            <path class="cls-2" d="M13 7V3H9v2H5v5H2v5h3v-3h4V7h4z"/>
            <path class="cls-2" d="M11 8v4H9v3h6V8h-4z"/>
            <path d="M1 11h2v4H1zm5-5H5V5H3v4h3V6zm3 6H7v1H6v2h4v-2H9v-1zm3-1V9h-1V5h-1v4H9v2h2v1h1v1h1v-2h-1zM9 4V3H7v1h1v1h2V4H9z" fill="#f8d0b0"/>
            <path class="cls-4" d="M8 4H7V3H6v1H4v1h4V4zm2 2V5H8v1h1v3h1V6z"/>
            <path class="cls-4" d="M15 9V8h-1V4h-1V3h-1V2H7v1h4v1h1v1h1v2h-2v1h2v1h1v1h1v4h-1v1H6v-2h1v-1H6v-2H5V9H3V7h1V5H3v1H2v3H1v1H0v5h1v1h14v-1h1V9zM2 15v-1H1v-3h1v-1h2v1h1v4z"/>
            <path class="cls-4" d="M9 12h2v-1H9V9H8v2H7v1h2zm2 0h1v1h-1z"/>
        </g>
    </g>
</svg>
