<svg xmlns="http://www.w3.org/2000/svg" viewBox="0 0 14 16"><defs><style>.cls-1{fill:#f8d0b0;}.cls-2{fill:#f82000;}.cls-3{fill:#000400;}</style></defs><title>38</title><g id="Layer_2" data-name="Layer 2"><g id="_38" data-name="38"><polygon class="cls-1" points="1 3 1 7 4 7 4 8 10 8 10 7 13 7 13 3 1 3"/><rect class="cls-1" x="2" y="8" width="2" height="2"/><rect class="cls-1" x="10" y="9" width="2" height="2"/><rect class="cls-1" x="5" y="11" width="1" height="1"/><rect class="cls-1" x="8" y="11" width="1" height="1"/><rect class="cls-2" x="3" y="1" width="8" height="2"/><rect class="cls-2" x="5" y="9" width="4" height="2"/><rect class="cls-2" x="10" y="8" width="1" height="1"/><rect class="cls-2" x="8" y="13" width="3" height="1"/><rect class="cls-2" x="4" y="14" width="3" height="1"/><rect class="cls-3" x="4" width="6" height="1"/><rect class="cls-3" x="3" y="1" width="1" height="1"/><polygon class="cls-3" points="2 5 3 5 3 2 2 2 2 3 1 3 1 4 2 4 2 5"/><rect class="cls-3" y="4" width="1" height="2"/><rect class="cls-3" x="5" y="3" width="1" height="2"/><rect class="cls-3" x="8" y="3" width="1" height="2"/><rect class="cls-3" x="10" y="1" width="1" height="1"/><polygon class="cls-3" points="12 5 12 4 13 4 13 3 12 3 12 2 11 2 11 5 12 5"/><rect class="cls-3" x="13" y="4" width="1" height="2"/><rect class="cls-3" x="12" y="6" width="1" height="1"/><polygon class="cls-3" points="9 7 10 7 10 5 9 5 9 6 5 6 5 5 4 5 4 7 5 7 9 7"/><polygon class="cls-3" points="10 8 11 8 11 9 12 9 12 8 12 7 10 7 10 8"/><rect class="cls-3" x="12" y="9" width="1" height="2"/><path class="cls-3" d="M10,10V8H4v2H2V8H4V7H2V6H1v7H3v3H8V15h3V14H8V13h3v1h1V11H10ZM7,15H4V14H7Zm2-3H8V11H6v1H5V11H6V10H5V9H9v1H8v1H9Z"/></g></g></svg>