<svg xmlns="http://www.w3.org/2000/svg" viewBox="0 0 14 16">
    <defs>
        <style>
            .cls-3{fill:#000400}
        </style>
    </defs>
    <g id="Layer_2" data-name="Layer 2">
        <g id="_38" data-name="38">
            <path d="M1 3v4h3v1h6V7h3V3H1zm1 5h2v2H2zm8 1h2v2h-2zm-5 2h1v1H5zm3 0h1v1H8z" fill="#f8d0b0"/>
            <path d="M3 1h8v2H3zm2 8h4v2H5zm5-1h1v1h-1zm-2 5h3v1H8zm-4 1h3v1H4z" fill="#f82000"/>
            <path class="cls-3" d="M4 0h6v1H4zM3 1h1v1H3zM2 5h1V2H2v1H1v1h1v1zM0 4h1v2H0zm5-1h1v2H5zm3 0h1v2H8zm2-2h1v1h-1zm2 4V4h1V3h-1V2h-1v3h1zm1-1h1v2h-1zm-1 2h1v1h-1zM9 7h1V5H9v1H5V5H4v2h5zm1 1h1v1h1V7h-2v1zm2 1h1v2h-1z"/>
            <path class="cls-3" d="M10 10V8H4v2H2V8h2V7H2V6H1v7h2v3h5v-1h3v-1H8v-1h3v1h1v-3h-2zm-3 5H4v-1h3zm2-3H8v-1H6v1H5v-1h1v-1H5V9h4v1H8v1h1z"/>
        </g>
    </g>
</svg>
