<svg xmlns="http://www.w3.org/2000/svg" viewBox="0 0 16 16">
    <defs>
        <style>
            .cls-3{fill:#000400}
        </style>
    </defs>
    <g id="Layer_2" data-name="Layer 2">
        <g id="_39" data-name="39">
            <path fill="#fff" d="M0 0h16v16H0z"/>
            <path d="M1 2h3v2H1zm6-2h7v1H7zm7 5V4h-2v2h2v3h1V5h-1z" fill="#f82000"/>
            <path class="cls-3" d="M7 2V0H6v1H5v1h2z"/>
            <path class="cls-3" d="M15 4V0h-1v5h1v4h-1V6h-2V5h1V4h-1V2h-1v5h-1V6H6v1H5V2H4V1H3V0H2v1H1v2h1V2h1v1h1v1H1V3H0v12h16V4zM1 14V5h3v1H2v8zm9 0v-4H9V9H7v1H6v4H3V7h1v1h3V7h2v1h3V7h1v7zm5 0h-1v-4h1z"/>
            <path class="cls-3" d="M9 1h2v1H9zM7 2h2v1H7zM6 4h1v1H6zm3 0h1v1H9z"/>
            <path d="M1 1h1V0H0v3h1V1zm14-1h1v4h-1zM0 15h16v1H0z" fill="#f8eca0"/>
        </g>
    </g>
</svg>
