<svg xmlns="http://www.w3.org/2000/svg" viewBox="0 0 16 16"><defs><style>.cls-1{fill:#fff;}.cls-2{fill:#f82000;}.cls-3{fill:#000400;}.cls-4{fill:#f8eca0;}</style></defs><title>39</title><g id="Layer_2" data-name="Layer 2"><g id="_39" data-name="39"><rect class="cls-1" width="16" height="16"/><rect class="cls-2" x="1" y="2" width="3" height="2"/><rect class="cls-2" x="7" width="7" height="1"/><polygon class="cls-2" points="14 5 14 4 12 4 12 5 12 6 14 6 14 9 15 9 15 6 15 5 14 5"/><polygon class="cls-3" points="7 2 7 0 6 0 6 1 5 1 5 2 6 2 7 2"/><path class="cls-3" d="M15,4V0H14V5h1V9H14V6H12V5h1V4H12V2H11V7H10V6H6V7H5V2H4V1H3V0H2V1H1V3H2V2H3V3H4V4H1V3H0V15H16V4ZM1,14V5H4V6H2v8Zm9,0V10H9V9H7v1H6v4H3V7H4V8H7V7H9V8h3V7h1v7Zm5,0H14V10h1Z"/><rect class="cls-3" x="9" y="1" width="2" height="1"/><rect class="cls-3" x="7" y="2" width="2" height="1"/><rect class="cls-3" x="6" y="4" width="1" height="1"/><rect class="cls-3" x="9" y="4" width="1" height="1"/><polygon class="cls-4" points="1 1 2 1 2 0 1 0 0 0 0 3 1 3 1 1"/><rect class="cls-4" x="15" width="1" height="4"/><rect class="cls-4" y="15" width="16" height="1"/></g></g></svg>