<svg xmlns="http://www.w3.org/2000/svg" viewBox="0 0 16 16"><defs><style>.cls-1{fill:#f8eca0;}.cls-2{fill:#28f030;}.cls-3{fill:#000400;}.cls-4{fill:#08d4f8;}</style></defs><title>4</title><g id="Layer_2" data-name="Layer 2"><g id="_4" data-name="4"><rect class="cls-1" width="16" height="16"/><polygon class="cls-2" points="9 6 8 6 8 3 6 3 6 5 5 5 5 7 4 7 4 12 5 12 5 14 6 14 6 13 7 13 7 10 8 10 8 8 9 8 9 6"/><polygon class="cls-2" points="14 10 13 10 13 9 12 9 12 10 10 10 10 11 9 11 9 15 12 15 13 15 13 14 12 14 12 13 13 13 13 11 14 11 14 10"/><rect class="cls-3" x="2" y="7" width="1" height="5"/><rect class="cls-3" x="3" y="4" width="1" height="3"/><rect class="cls-3" x="4" y="2" width="1" height="2"/><rect class="cls-3" x="5" y="1" width="4" height="1"/><rect class="cls-3" x="9" y="2" width="1" height="2"/><rect class="cls-3" x="6" y="4" width="1" height="2"/><rect class="cls-3" x="8" y="4" width="1" height="2"/><rect class="cls-3" x="8" y="10" width="1" height="1"/><rect class="cls-3" x="9" y="8" width="1" height="2"/><polygon class="cls-3" points="11 8 11 7 14 7 14 6 11 6 11 4 10 4 10 8 11 8"/><rect class="cls-3" x="14" y="7" width="1" height="1"/><rect class="cls-3" x="11" y="8" width="1" height="2"/><rect class="cls-3" x="13" y="8" width="1" height="2"/><rect class="cls-3" x="15" y="8" width="1" height="3"/><polygon class="cls-3" points="14 11 14 13 13 13 13 15 9 15 9 14 8 14 8 13 7 13 7 14 4 14 4 12 3 12 3 14 0 14 0 15 5 15 5 16 13 16 14 16 15 16 15 15 16 15 16 14 15 14 15 11 14 11"/><polygon class="cls-4" points="9 2 7 2 7 3 8 3 8 4 9 4 9 3 9 2"/><rect class="cls-4" x="9" y="4" width="1" height="4"/><rect class="cls-4" x="8" y="8" width="1" height="2"/><rect class="cls-4" x="7" y="10" width="1" height="3"/><rect class="cls-4" x="6" y="13" width="1" height="1"/><rect class="cls-4" x="13" y="7" width="1" height="1"/><rect class="cls-4" x="14" y="8" width="1" height="3"/><rect class="cls-4" x="13" y="11" width="1" height="2"/><rect class="cls-4" x="12" y="13" width="1" height="1"/></g></g></svg>