<svg xmlns="http://www.w3.org/2000/svg" viewBox="0 0 16 16">
    <g data-name="Layer 2">
        <g data-name="4">
            <path fill="#f8eca0" d="M0 0h16v16H0z"/>
            <path d="M9 6H8V3H6v2H5v2H4v5h1v2h1v-1h1v-3h1V8h1V6zm5 4h-1V9h-1v1h-2v1H9v4h4v-1h-1v-1h1v-2h1v-1z" fill="#28f030"/>
            <path d="M2 7h1v5H2zm1-3h1v3H3zm1-2h1v2H4zm1-1h4v1H5zm4 1h1v2H9zM6 4h1v2H6zm2 0h1v2H8zm0 6h1v1H8zm1-2h1v2H9zm2 0V7h3V6h-3V4h-1v4h1zm3-1h1v1h-1zm-3 1h1v2h-1zm2 0h1v2h-1zm2 0h1v3h-1zm-1 3v2h-1v2H9v-1H8v-1H7v1H4v-2H3v2H0v1h5v1h10v-1h1v-1h-1v-3h-1z" fill="#000400"/>
            <path d="M9 2H7v1h1v1h1V2zm0 2h1v4H9zM8 8h1v2H8zm-1 2h1v3H7zm-1 3h1v1H6zm7-6h1v1h-1zm1 1h1v3h-1zm-1 3h1v2h-1zm-1 2h1v1h-1z" fill="#08d4f8"/>
        </g>
    </g>
</svg>
