<svg xmlns="http://www.w3.org/2000/svg" viewBox="0 0 14 16">
    <defs>
        <style>
            .cls-3{fill:#000400}
        </style>
    </defs>
    <g id="Layer_2" data-name="Layer 2">
        <g id="_40" data-name="40">
            <path d="M13 3v4h-3v1H4V7H1V3h12zm-3 5h2v2h-2zM2 9h2v2H2zm6 2h1v1H8zm-3 0h1v1H5z" fill="#f8d0b0"/>
            <path d="M3 1h8v2H3zm2 8h4v2H5zM3 8h1v1H3zm0 5h3v1H3zm4 1h3v1H7z" fill="#f82000"/>
            <path class="cls-3" d="M4 0h6v1H4zm6 1h1v1h-1zm2 4h-1V2h1v1h1v1h-1v1zm1-1h1v2h-1zM8 3h1v2H8zM5 3h1v2H5zM3 1h1v1H3zM2 5V4H1V3h1V2h1v3H2zM0 4h1v2H0zm1 2h1v1H1zm4 1H4V5h1v1h4V5h1v2H5zM4 8H3v1H2V7h2v1zM1 9h1v2H1z"/>
            <path class="cls-3" d="M4 11H2v3h1v-1h3v1H3v1h3v1h5v-3h2V6h-1v1h-2v1h2v2h-2V8H4v3zm3 3h3v1H7zm-2-3h1v-1H5V9h4v1H8v1h1v1H8v-1H6v1H5z"/>
        </g>
    </g>
</svg>
