<svg xmlns="http://www.w3.org/2000/svg" viewBox="0 0 14 16"><defs><style>.cls-1{fill:#f8d0b0;}.cls-2{fill:#f82000;}.cls-3{fill:#000400;}</style></defs><title>40</title><g id="Layer_2" data-name="Layer 2"><g id="_40" data-name="40"><polygon class="cls-1" points="13 3 13 7 10 7 10 8 4 8 4 7 1 7 1 3 13 3"/><rect class="cls-1" x="10" y="8" width="2" height="2"/><rect class="cls-1" x="2" y="9" width="2" height="2"/><rect class="cls-1" x="8" y="11" width="1" height="1"/><rect class="cls-1" x="5" y="11" width="1" height="1"/><rect class="cls-2" x="3" y="1" width="8" height="2"/><rect class="cls-2" x="5" y="9" width="4" height="2"/><rect class="cls-2" x="3" y="8" width="1" height="1"/><rect class="cls-2" x="3" y="13" width="3" height="1"/><rect class="cls-2" x="7" y="14" width="3" height="1"/><rect class="cls-3" x="4" width="6" height="1"/><rect class="cls-3" x="10" y="1" width="1" height="1"/><polygon class="cls-3" points="12 5 11 5 11 2 12 2 12 3 13 3 13 4 12 4 12 5"/><rect class="cls-3" x="13" y="4" width="1" height="2"/><rect class="cls-3" x="8" y="3" width="1" height="2"/><rect class="cls-3" x="5" y="3" width="1" height="2"/><rect class="cls-3" x="3" y="1" width="1" height="1"/><polygon class="cls-3" points="2 5 2 4 1 4 1 3 2 3 2 2 3 2 3 5 2 5"/><rect class="cls-3" y="4" width="1" height="2"/><rect class="cls-3" x="1" y="6" width="1" height="1"/><polygon class="cls-3" points="5 7 4 7 4 5 5 5 5 6 9 6 9 5 10 5 10 7 9 7 5 7"/><polygon class="cls-3" points="4 8 3 8 3 9 2 9 2 8 2 7 4 7 4 8"/><rect class="cls-3" x="1" y="9" width="1" height="2"/><path class="cls-3" d="M4,11H2v3H3V13H6v1H3v1H6v1h5V13h2V6H12V7H10V8h2v2H10V8H4v3Zm3,3h3v1H7ZM5,11H6V10H5V9H9v1H8v1H9v1H8V11H6v1H5Z"/></g></g></svg>