<svg xmlns="http://www.w3.org/2000/svg" viewBox="0 0 16 16"><defs><style>.cls-1{fill:#f8eca0;}.cls-2{fill:#28f030;}.cls-3{fill:#08d4f8;}</style></defs><title>5</title><g id="Layer_2" data-name="Layer 2"><g id="_5" data-name="5"><rect class="cls-1" width="16" height="16"/><polygon class="cls-2" points="13 9 10 9 10 12 8 12 8 14 12 14 12 13 13 13 13 9"/><polygon class="cls-2" points="8 8 8 4 7 4 7 3 6 3 6 4 4 4 4 6 3 6 3 10 2 10 2 11 3 11 3 13 4 13 4 14 6 14 6 13 7 13 7 8 8 8"/><rect x="4" y="2" width="5" height="1"/><rect x="3" y="3" width="1" height="1"/><rect x="2" y="4" width="1" height="2"/><rect x="1" y="6" width="1" height="5"/><rect x="2" y="11" width="1" height="2"/><polygon points="15 14 15 9 14 9 14 14 13 14 13 15 9 15 9 14 8 14 8 13 7 13 7 14 4 14 4 13 3 13 3 14 0 14 0 15 5 15 5 16 15 16 15 15 16 15 16 14 15 14"/><rect x="4" y="5" width="1" height="3"/><rect x="6" y="5" width="1" height="3"/><rect x="9" y="3" width="1" height="1"/><rect x="10" y="4" width="1" height="2"/><polygon points="10 7 10 8 13 8 13 7 12 7 12 6 11 6 11 7 10 7"/><rect x="9" y="8" width="1" height="1"/><rect x="8" y="9" width="1" height="3"/><rect x="10" y="10" width="1" height="1"/><rect x="12" y="10" width="1" height="1"/><rect x="13" y="8" width="1" height="1"/><polygon class="cls-3" points="9 8 10 8 10 7 11 7 11 6 10 6 10 4 9 4 9 3 7 3 7 4 8 4 8 8 7 8 7 9 7 13 8 13 8 9 9 9 9 8"/><rect class="cls-3" x="6" y="13" width="1" height="1"/><rect class="cls-3" x="12" y="8" width="1" height="1"/><polygon class="cls-3" points="13 9 13 13 12 13 12 14 9 14 9 15 13 15 13 14 14 14 14 13 14 9 13 9"/></g></g></svg>