<svg xmlns="http://www.w3.org/2000/svg" viewBox="0 0 16 16">
    <g data-name="Layer 2">
        <g data-name="5">
            <path fill="#f8eca0" d="M0 0h16v16H0z"/>
            <path d="M13 9h-3v3H8v2h4v-1h1V9zM8 8V4H7V3H6v1H4v2H3v4H2v1h1v2h1v1h2v-1h1V8h1z" fill="#28f030"/>
            <path d="M4 2h5v1H4zM3 3h1v1H3zM2 4h1v2H2zM1 6h1v5H1zm1 5h1v2H2z"/>
            <path d="M15 14V9h-1v5h-1v1H9v-1H8v-1H7v1H4v-1H3v1H0v1h5v1h10v-1h1v-1h-1zM4 5h1v3H4zm2 0h1v3H6zm3-2h1v1H9zm1 1h1v2h-1zm0 3v1h3V7h-1V6h-1v1h-1zM9 8h1v1H9z"/>
            <path d="M8 9h1v3H8zm2 1h1v1h-1zm2 0h1v1h-1zm1-2h1v1h-1z"/>
            <path d="M9 8h1V7h1V6h-1V4H9V3H7v1h1v4H7v5h1V9h1V8zm-3 5h1v1H6zm6-5h1v1h-1zm1 1v4h-1v1H9v1h4v-1h1V9h-1z" fill="#08d4f8"/>
        </g>
    </g>
</svg>
