<svg xmlns="http://www.w3.org/2000/svg" viewBox="0 0 16 16"><defs><style>.cls-1{fill:#f8eca0;}.cls-2{fill:#28f030;}.cls-3{fill:#000400;}.cls-4{fill:#08d4f8;}</style></defs><title>6</title><g id="Layer_2" data-name="Layer 2"><g id="_6" data-name="6"><rect class="cls-1" width="16" height="16"/><polygon class="cls-2" points="12 11 12 10 10 10 10 9 8 9 8 12 7 12 7 11 6 11 6 3 3 3 3 7 2 7 2 11 3 11 3 13 4 13 4 14 7 14 8 14 10 14 12 14 12 13 13 13 13 11 12 11"/><rect class="cls-3" x="2" y="1" width="4" height="1"/><rect class="cls-3" x="1" y="2" width="1" height="1"/><rect class="cls-3" y="3" width="1" height="8"/><rect class="cls-3" x="1" y="11" width="1" height="2"/><polygon class="cls-3" points="15 14 15 11 14 11 14 14 13 14 13 15 9 15 9 14 3 14 3 13 2 13 2 14 0 14 0 15 5 15 5 16 15 16 15 15 16 15 16 14 15 14"/><rect class="cls-3" x="13" y="10" width="1" height="1"/><rect class="cls-3" x="12" y="8" width="1" height="2"/><rect class="cls-3" x="10" y="8" width="1" height="2"/><rect class="cls-3" x="8" y="8" width="1" height="2"/><rect class="cls-3" x="11" y="7" width="1" height="1"/><rect class="cls-3" x="8" y="6" width="3" height="1"/><rect class="cls-3" x="7" y="7" width="1" height="1"/><rect class="cls-3" x="6" y="8" width="1" height="3"/><rect class="cls-3" x="7" y="11" width="1" height="1"/><rect class="cls-3" x="8" y="12" width="1" height="1"/><rect class="cls-3" x="7" y="4" width="1" height="2"/><rect class="cls-3" x="6" y="2" width="1" height="2"/><rect class="cls-3" x="4" y="4" width="1" height="3"/><rect class="cls-3" x="2" y="4" width="1" height="3"/><rect class="cls-4" x="5" y="2" width="1" height="2"/><polygon class="cls-4" points="7 4 6 4 6 8 7 8 7 7 8 7 8 6 7 6 7 4"/><rect class="cls-4" x="11" y="8" width="1" height="2"/><rect class="cls-4" x="12" y="10" width="1" height="1"/><polygon class="cls-4" points="13 11 13 13 12 13 12 14 11 14 9 14 9 15 11 15 12 15 13 15 13 14 14 14 14 11 13 11"/></g></g></svg>