<svg xmlns="http://www.w3.org/2000/svg" viewBox="0 0 16 16">
    <defs>
        <style>
            .cls-3{fill:#000400}
        </style>
    </defs>
    <g id="Layer_2" data-name="Layer 2">
        <g id="_6" data-name="6">
            <path fill="#f8eca0" d="M0 0h16v16H0z"/>
            <path fill="#28f030" d="M12 11v-1h-2V9H8v3H7v-1H6V3H3v4H2v4h1v2h1v1h8v-1h1v-2h-1z"/>
            <path class="cls-3" d="M2 1h4v1H2zM1 2h1v1H1zM0 3h1v8H0zm1 8h1v2H1zm14 3v-3h-1v3h-1v1H9v-1H3v-1H2v1H0v1h5v1h10v-1h1v-1h-1zm-2-4h1v1h-1zm-1-2h1v2h-1zm-2 0h1v2h-1zM8 8h1v2H8zm3-1h1v1h-1zM8 6h3v1H8zM7 7h1v1H7zM6 8h1v3H6z"/>
            <path class="cls-3" d="M7 11h1v1H7zm1 1h1v1H8zM7 4h1v2H7zM6 2h1v2H6zM4 4h1v3H4zM2 4h1v3H2z"/>
            <path d="M5 2h1v2H5zm2 2H6v4h1V7h1V6H7V4zm4 4h1v2h-1zm1 2h1v1h-1zm1 1v2h-1v1H9v1h4v-1h1v-3h-1z" fill="#08d4f8"/>
        </g>
    </g>
</svg>
