<svg xmlns="http://www.w3.org/2000/svg" viewBox="0 0 16 16">
    <defs>
        <style>
            .cls-4{fill:#000400}
        </style>
    </defs>
    <g id="Layer_2" data-name="Layer 2">
        <g id="_8" data-name="8">
            <path fill="#f8eca0" d="M0 0h16v16H0z"/>
            <path fill="#f8d0b0" d="M4 10h8v5H4z"/>
            <path d="M13 4h-1V3h-2V2H6v1H4v1H3v4H1v3h1v-1h2V9h5V6h1V5h3V4zm0 1h1v1h-1zm0 2h2v4h-2z" fill="#f89c10"/>
            <path class="cls-4" d="M3 8V7h1V5H3V4H2v1H1v2H0v4h1V8h2zm0-5h1v1H3zm1-1h2v1H4zm1 2v1h1v1h2V5h1V4H8V3H6v1H5zm1-3h4v1H6zm4 1h2v1h-2zm2 1h1v1h-1zm1 1h1v1h-1zm2 3h1v4h-1z"/>
            <path class="cls-4" d="M15 12v-1h-1v-1h-1V9h1V7h1V5h-1v1h-1V5h-3v1H9v3H4v1H2v1H1v1h2v3h1v1h11v-1h1v-1h-3v-2zm-4 2v1h-1v-3H9v-1H7v1H6v3H5v-1H4v-3h1v-1h6v1h1v3z"/>
        </g>
    </g>
</svg>
