<svg xmlns="http://www.w3.org/2000/svg" viewBox="0 0 16 16"><defs><style>.cls-1{fill:#f8eca0;}.cls-2{fill:#f8d0b0;}.cls-3{fill:#f89c10;}.cls-4{fill:#000400;}</style></defs><title>8</title><g id="Layer_2" data-name="Layer 2"><g id="_8" data-name="8"><rect class="cls-1" width="16" height="16"/><rect class="cls-2" x="4" y="10" width="8" height="5"/><polygon class="cls-3" points="13 4 12 4 12 3 10 3 10 2 6 2 6 3 4 3 4 4 3 4 3 8 1 8 1 10 1 11 2 11 2 10 3 10 4 10 4 9 9 9 9 6 10 6 10 5 12 5 13 5 13 4"/><rect class="cls-3" x="13" y="5" width="1" height="1"/><rect class="cls-3" x="13" y="7" width="2" height="4"/><polygon class="cls-4" points="3 8 3 7 4 7 4 5 3 5 3 4 2 4 2 5 1 5 1 7 0 7 0 11 1 11 1 8 3 8"/><rect class="cls-4" x="3" y="3" width="1" height="1"/><rect class="cls-4" x="4" y="2" width="2" height="1"/><polygon class="cls-4" points="5 4 5 5 6 5 6 6 8 6 8 5 9 5 9 4 8 4 8 3 6 3 6 4 5 4"/><rect class="cls-4" x="6" y="1" width="4" height="1"/><rect class="cls-4" x="10" y="2" width="2" height="1"/><rect class="cls-4" x="12" y="3" width="1" height="1"/><rect class="cls-4" x="13" y="4" width="1" height="1"/><rect class="cls-4" x="15" y="7" width="1" height="4"/><path class="cls-4" d="M15,12V11H14V10H13V9h1V7h1V5H14V6H13V5H10V6H9V9H4v1H2v1H1v1H3v3H4v1H15V15h1V14H13V12Zm-4,2v1H10V12H9V11H7v1H6v3H5V14H4V11H5V10h6v1h1v3Z"/></g></g></svg>