<svg xmlns="http://www.w3.org/2000/svg" viewBox="0 0 16 16"><defs><style>.cls-1{fill:#f8eca0;}.cls-2{fill:#f8d0b0;}.cls-3{fill:#f89c10;}</style></defs><title>9</title><g id="Layer_2" data-name="Layer 2"><g id="_9" data-name="9"><rect class="cls-1" width="16" height="6"/><polygon class="cls-2" points="13 4 13 3 11 3 11 2 5 2 5 3 3 3 3 4 1 4 1 15 3 15 3 5 13 5 13 15 15 15 15 4 13 4"/><polygon class="cls-3" points="12 8 12 5 10 5 10 4 6 4 6 5 4 5 4 8 3 8 3 15 13 15 13 8 12 8"/><rect x="1" y="4" width="1" height="2"/><rect x="2" y="3" width="1" height="1"/><rect x="3" y="2" width="2" height="1"/><rect x="5" y="1" width="6" height="1"/><rect x="11" y="2" width="2" height="1"/><rect x="13" y="3" width="1" height="1"/><rect x="14" y="4" width="1" height="2"/><rect x="4" y="4" width="2" height="1"/><rect x="6" y="3" width="4" height="1"/><rect x="10" y="4" width="2" height="1"/><polygon points="15 6 15 15 14 15 14 7 13 7 13 5 12 5 12 8 13 8 13 15 3 15 3 8 4 8 4 5 3 5 3 7 2 7 2 15 1 15 1 6 0 6 0 16 1 16 16 16 16 15 16 6 15 6"/><polygon points="10 7 9 7 9 6 7 6 7 7 6 7 6 8 5 8 5 10 6 10 6 11 7 11 7 14 9 14 9 11 10 11 10 10 11 10 11 8 10 8 10 7"/></g></g></svg>