<svg xmlns="http://www.w3.org/2000/svg" viewBox="0 0 16 16">
    <g data-name="Layer 2">
        <g data-name="9">
            <path fill="#f8eca0" d="M0 0h16v6H0z"/>
            <path fill="#f8d0b0" d="M13 4V3h-2V2H5v1H3v1H1v11h2V5h10v10h2V4h-2z"/>
            <path fill="#f89c10" d="M12 8V5h-2V4H6v1H4v3H3v7h10V8h-1z"/>
            <path d="M1 4h1v2H1zm1-1h1v1H2zm1-1h2v1H3zm2-1h6v1H5zm6 1h2v1h-2zm2 1h1v1h-1zm1 1h1v2h-1zM4 4h2v1H4zm2-1h4v1H6zm4 1h2v1h-2z"/>
            <path d="M15 6v9h-1V7h-1V5h-1v3h1v7H3V8h1V5H3v2H2v8H1V6H0v10h16V6h-1z"/>
            <path d="M10 7H9V6H7v1H6v1H5v2h1v1h1v3h2v-3h1v-1h1V8h-1V7z"/>
        </g>
    </g>
</svg>
